<svg width="48" height="41" fill="none" xmlns="http://www.w3.org/2000/svg"><g clip-path="url(#clip0)"><path d="M23.793 19.172v5c0 .332-.126.65-.349.884a1.16 1.16 0 01-.841.366h-2.38a1.16 1.16 0 01-.84-.366 1.283 1.283 0 01-.349-.884v-1.25H14.87v10h1.785c.315 0 .618.132.841.367.223.234.348.552.348.883v2.5c0 .332-.125.65-.348.884a1.16 1.16 0 01-.841.367H7.138a1.16 1.16 0 01-.841-.367 1.283 1.283 0 01-.349-.883v-2.5c0-.332.125-.65.349-.884.223-.235.525-.367.84-.367h1.785v-10H4.76v1.25c0 .332-.126.65-.349.884a1.16 1.16 0 01-.841.366h-2.38a1.16 1.16 0 01-.84-.366A1.283 1.283 0 010 24.172v-5c0-.331.125-.649.348-.883.224-.235.526-.367.842-.367h21.413c.315 0 .618.132.841.367.223.234.349.552.349.883z" fill="#34A5B2"/><path d="M47.585 4.173v7.5c0 .331-.125.649-.348.883a1.16 1.16 0 01-.842.367h-2.379a1.16 1.16 0 01-.841-.367 1.283 1.283 0 01-.348-.883v-2.5h-6.543v23.75h2.974c.315 0 .618.131.84.366.224.234.35.552.35.883v2.5c0 .332-.126.65-.35.884a1.16 1.16 0 01-.84.367H27.36a1.16 1.16 0 01-.84-.367 1.283 1.283 0 01-.35-.883v-2.5c0-.332.126-.65.35-.884a1.16 1.16 0 01.84-.367h2.974V9.172h-6.542v2.5c0 .332-.126.65-.349.884a1.16 1.16 0 01-.841.367h-2.38a1.16 1.16 0 01-.84-.367 1.283 1.283 0 01-.349-.883v-7.5c0-.332.125-.65.349-.884.223-.235.525-.366.84-.366h26.172c.316 0 .619.131.842.366.223.234.348.552.348.884z" fill="#226E77"/></g><defs><clipPath id="clip0"><path fill="#fff" transform="translate(0 .423)" d="M0 0h47.585v40H0z"/></clipPath></defs></svg>