<svg viewBox="0 0 25 24" fill="none" xmlns="http://www.w3.org/2000/svg">
<path d="M8.23312 19.3247C8.23312 19.424 8.11898 19.5034 7.97506 19.5034C7.81129 19.5183 7.69715 19.4389 7.69715 19.3247C7.69715 19.2255 7.81129 19.1461 7.95521 19.1461C8.10409 19.1312 8.23312 19.2106 8.23312 19.3247ZM6.68972 19.1014C6.65498 19.2007 6.75424 19.3148 6.90312 19.3446C7.03215 19.3942 7.18103 19.3446 7.21081 19.2453C7.24058 19.1461 7.14629 19.0319 6.99741 18.9873C6.86838 18.9525 6.72446 19.0022 6.68972 19.1014ZM8.88324 19.017C8.73932 19.0518 8.64006 19.1461 8.65495 19.2602C8.66984 19.3595 8.79887 19.424 8.94775 19.3893C9.09167 19.3545 9.19092 19.2602 9.17604 19.161C9.16115 19.0667 9.02716 19.0022 8.88324 19.017ZM12.1487 -3.05176e-05C5.26543 -3.05176e-05 0 5.2257 0 12.109C0 17.6126 3.46397 22.3222 8.41178 23.9798C9.04701 24.0939 9.27033 23.7018 9.27033 23.3793C9.27033 23.0716 9.25544 21.3743 9.25544 20.3322C9.25544 20.3322 5.78155 21.0766 5.05203 18.8533C5.05203 18.8533 4.48628 17.4091 3.6724 17.0369C3.6724 17.0369 2.53594 16.2578 3.7518 16.2727C3.7518 16.2727 4.98752 16.3719 5.66741 17.5531C6.75424 19.4687 8.57555 18.9178 9.28522 18.5903C9.39936 17.7962 9.72193 17.2454 10.0792 16.9178C7.3051 16.6101 4.50613 16.2082 4.50613 11.434C4.50613 10.0693 4.8833 9.38444 5.67733 8.511C5.5483 8.18843 5.12647 6.85842 5.80636 5.14133C6.84357 4.81875 9.23063 6.48126 9.23063 6.48126C10.2232 6.20335 11.2901 6.05943 12.3472 6.05943C13.4043 6.05943 14.4712 6.20335 15.4638 6.48126C15.4638 6.48126 17.8508 4.81379 18.888 5.14133C19.5679 6.86339 19.1461 8.18843 19.0171 8.511C19.8111 9.3894 20.2975 10.0743 20.2975 11.434C20.2975 16.223 17.3744 16.6052 14.6003 16.9178C15.0568 17.3099 15.4439 18.0543 15.4439 19.2205C15.4439 20.8929 15.429 22.9624 15.429 23.3693C15.429 23.6919 15.6573 24.084 16.2876 23.9698C21.2503 22.3222 24.615 17.6126 24.615 12.109C24.615 5.2257 19.032 -3.05176e-05 12.1487 -3.05176e-05ZM4.82375 17.1163C4.75923 17.166 4.77412 17.2801 4.85849 17.3744C4.93789 17.4538 5.05203 17.4885 5.11655 17.424C5.18106 17.3744 5.16617 17.2602 5.08181 17.166C5.0024 17.0866 4.88826 17.0518 4.82375 17.1163ZM4.28778 16.7144C4.25304 16.7789 4.30266 16.8583 4.40192 16.9079C4.48132 16.9575 4.58057 16.9426 4.61531 16.8732C4.65005 16.8086 4.60043 16.7292 4.50117 16.6796C4.40192 16.6498 4.32251 16.6647 4.28778 16.7144ZM5.89569 18.4811C5.81629 18.5456 5.84606 18.6945 5.96021 18.7888C6.07435 18.9029 6.21827 18.9178 6.28278 18.8384C6.3473 18.7739 6.31752 18.625 6.21827 18.5307C6.10909 18.4166 5.96021 18.4017 5.89569 18.4811ZM5.32994 17.7516C5.25054 17.8012 5.25054 17.9302 5.32994 18.0444C5.40935 18.1585 5.54334 18.2081 5.60785 18.1585C5.68726 18.094 5.68726 17.965 5.60785 17.8508C5.53838 17.7367 5.40935 17.687 5.32994 17.7516Z" fill="#34A5B2"/>
</svg>
