<svg viewBox="0 0 50 41" fill="none" xmlns="http://www.w3.org/2000/svg"><g clip-path="url(#waveform1)"><path d="M10.938 15.438H9.062a1.25 1.25 0 00-1.25 1.25v7.5a1.25 1.25 0 001.25 1.25h1.876a1.25 1.25 0 001.25-1.25v-7.5a1.25 1.25 0 00-1.25-1.25zm30-10h-1.876a1.25 1.25 0 00-1.25 1.25v27.5a1.25 1.25 0 001.25 1.25h1.876a1.25 1.25 0 001.25-1.25v-27.5a1.25 1.25 0 00-1.25-1.25zm-15-5h-1.875a1.25 1.25 0 00-1.25 1.25v37.5a1.25 1.25 0 001.25 1.25h1.875a1.25 1.25 0 001.25-1.25v-37.5a1.25 1.25 0 00-1.25-1.25z" fill="#34A5B2"/><path d="M3.438 17.938H1.562a1.25 1.25 0 00-1.25 1.25v2.5a1.25 1.25 0 001.25 1.25h1.875a1.25 1.25 0 001.25-1.25v-2.5a1.25 1.25 0 00-1.25-1.25zm15-10h-1.875a1.25 1.25 0 00-1.25 1.25v22.5a1.25 1.25 0 001.25 1.25h1.875a1.25 1.25 0 001.25-1.25v-22.5a1.25 1.25 0 00-1.25-1.25zm30 10h-1.876a1.25 1.25 0 00-1.25 1.25v2.5a1.25 1.25 0 001.25 1.25h1.876a1.25 1.25 0 001.25-1.25v-2.5a1.25 1.25 0 00-1.25-1.25zm-15-7.5h-1.876a1.25 1.25 0 00-1.25 1.25v17.5a1.25 1.25 0 001.25 1.25h1.875a1.25 1.25 0 001.25-1.25v-17.5a1.25 1.25 0 00-1.25-1.25z" fill="#226E77"/></g><defs><clipPath id="waveform1"><path fill="#fff" transform="translate(0 .438)" d="M0 0h50v40H0z"/></clipPath></defs></svg>
