<svg width="39" height="41" fill="none" xmlns="http://www.w3.org/2000/svg"><path fill-rule="evenodd" clip-rule="evenodd" d="M21.132 14.243a2.67 2.67 0 01-1.536.49 2.697 2.697 0 01-1.953-.851 2.98 2.98 0 01-.81-2.053c0-.574.163-1.135.466-1.613.304-.477.735-.85 1.24-1.07a2.64 2.64 0 011.597-.164 2.724 2.724 0 011.414.794c.387.406.65.924.756 1.487a3.04 3.04 0 01-.157 1.677c-.209.53-.563.984-1.017 1.303zm-10.008.076c7.421 1.841 9.54 1.838 16.945 0l.008-.001.039-.01c.316-.066.643 0 .913.185.27.186.46.475.528.805.068.33.01.677-.16.963-.172.286-.444.49-.758.568-2.203.55-4.26 1.028-6.304 1.275.058 7.619.831 9.666 1.73 12.048l.189.502a1.52 1.52 0 01-.022 1.111c-.147.353-.421.63-.763.77a1.32 1.32 0 01-1.057-.023 1.423 1.423 0 01-.732-.802l-.206-.547c-.592-1.572-1.146-3.044-1.503-5.787h-.743c-.357 2.744-.912 4.218-1.507 5.797l-.201.538a1.423 1.423 0 01-.733.801 1.32 1.32 0 01-1.057.023 1.415 1.415 0 01-.763-.77 1.52 1.52 0 01-.022-1.11c.065-.174.128-.344.192-.511.894-2.376 1.666-4.426 1.727-12.04-2.044-.247-4.1-.728-6.304-1.275-.306-.09-.567-.3-.729-.586a1.347 1.347 0 01-.138-.954 1.29 1.29 0 01.53-.788c.266-.18.59-.246.901-.182z" fill="#34A5B2"/><path fill-rule="evenodd" clip-rule="evenodd" d="M.563 20.861c0-11.048 8.519-20 19.034-20 10.514 0 19.033 8.952 19.033 20 0 11.049-8.519 20-19.034 20-10.514 0-19.034-8.951-19.034-20zm4.298 0c0 8.549 6.6 15.484 14.735 15.484h.016c8.135-.005 14.72-6.935 14.72-15.484 0-8.548-6.6-15.484-14.736-15.484-8.135 0-14.736 6.936-14.736 15.484z" fill="#226E77"/></svg>