<svg width="40" height="40" fill="none" xmlns="http://www.w3.org/2000/svg"><g clip-path="url(#clip0)"><path d="M20 32.5c8.977 0 16.25-7.273 16.25-16.25S28.977 0 20 0 3.75 7.273 3.75 16.25 11.023 32.5 20 32.5zM18.266 7.61V6.296A1.294 1.294 0 0119.563 5h.867a1.294 1.294 0 011.297 1.297v1.328a6.16 6.16 0 013.359 1.203.876.876 0 01.094 1.336l-1.274 1.211c-.297.29-.742.297-1.093.078a2.572 2.572 0 00-1.391-.398h-3.04c-.702 0-1.273.64-1.273 1.43 0 .64.391 1.21.946 1.374l4.867 1.461c2.008.602 3.414 2.532 3.414 4.696 0 2.656-2.063 4.804-4.617 4.875v1.312a1.295 1.295 0 01-1.297 1.297h-.867a1.295 1.295 0 01-1.297-1.297v-1.328a6.16 6.16 0 01-3.36-1.203.876.876 0 01-.093-1.336l1.273-1.211c.297-.29.742-.297 1.094-.078.416.263.898.401 1.39.398h3.04c.703 0 1.273-.64 1.273-1.43 0-.64-.39-1.21-.945-1.374l-4.867-1.461c-2.008-.602-3.415-2.532-3.415-4.696.008-2.656 2.063-4.804 4.618-4.875z" fill="#34A5B2"/><path d="M17.063 17.18l4.867 1.46c.554.165.945.735.945 1.376 0 .789-.57 1.43-1.273 1.43h-3.04a2.572 2.572 0 01-1.39-.4c-.352-.218-.797-.21-1.094.079l-1.273 1.21a.876.876 0 00.093 1.337 6.16 6.16 0 003.36 1.203v1.328a1.294 1.294 0 001.297 1.297h.867a1.293 1.293 0 001.297-1.297v-1.312c2.554-.07 4.617-2.22 4.617-4.875 0-2.164-1.406-4.094-3.414-4.696l-4.867-1.46c-.555-.165-.946-.735-.946-1.376 0-.789.57-1.43 1.274-1.43h3.039c.492-.002.975.136 1.39.4.352.218.797.21 1.094-.079l1.274-1.21a.878.878 0 00-.094-1.337 6.16 6.16 0 00-3.36-1.203V6.297A1.294 1.294 0 0020.43 5h-.867a1.294 1.294 0 00-1.297 1.297v1.312c-2.555.07-4.61 2.22-4.618 4.875 0 2.164 1.407 4.094 3.415 4.696zM37.5 27.5h-2.54a18.935 18.935 0 01-5.702 5h4.984c.414 0 .75.281.75.625v1.25c0 .344-.336.625-.75.625H5.75c-.414 0-.75-.281-.75-.625v-1.25c0-.344.336-.625.75-.625h4.984a19.029 19.029 0 01-5.703-5H2.5A2.5 2.5 0 000 30v7.5A2.5 2.5 0 002.5 40h35a2.5 2.5 0 002.5-2.5V30a2.5 2.5 0 00-2.5-2.5z" fill="#226E77"/></g><defs><clipPath id="clip0"><path fill="#fff" d="M0 0h40v40H0z"/></clipPath></defs></svg>