<svg width="55" height="41" fill="none" xmlns="http://www.w3.org/2000/svg"><path d="M42.946 36.92h-5.354l-1.19-3.75h-7.137l-1.19 3.75H26.64v.313c-.06 1.338-.458 2.491-1.07 3.438h17.376c.473 0 .927-.198 1.261-.55.335-.351.523-.828.523-1.326 0-.497-.188-.974-.523-1.325a1.742 1.742 0 00-1.261-.55zM18.84 25.722a10.537 10.537 0 002.288-3.533c.757-1.919.955-4.03.57-6.067a10.675 10.675 0 00-2.736-5.376 10.009 10.009 0 00-2.783-2.062V5.67h33.31v22.5H22.917c-.749-.698-1.624-1.348-2.545-1.804a9.81 9.81 0 00-1.533-.644z" fill="#34A5B2"/><path d="M16.179 12.17v12a7.462 7.462 0 002.312-3.13c.54-1.37.681-2.878.406-4.333a7.625 7.625 0 00-1.953-3.84 7.264 7.264 0 00-.765-.697z" fill="#34A5B2"/><path d="M50.678.67H14.99c-.946 0-1.854.396-2.523 1.099A3.849 3.849 0 0011.42 4.42v3.261a9.521 9.521 0 012.426.19c.81.17 1.594.443 2.333.812V5.67h33.31v22.5H22.917c.27.25.523.508.757.765 1.009 1.112 1.791 2.53 2.305 4.024l.07.21h24.63c.946 0 1.853-.395 2.523-1.098a3.849 3.849 0 001.045-2.652v-25c0-.994-.376-1.948-1.045-2.651A3.484 3.484 0 0050.678.67z" fill="#226E77"/><path d="M11.42 10.687v14.967a6.895 6.895 0 004.759-1.483v-12a6.977 6.977 0 00-2.89-1.356 6.803 6.803 0 00-1.869-.128z" fill="#226E77"/><path d="M15.465 28.17c-.178 0-.355.029-.525.086a9.38 9.38 0 01-3.044.54 9.39 9.39 0 01-3.044-.54 1.62 1.62 0 00-.52-.085 7.979 7.979 0 00-3.2.67 8.315 8.315 0 00-2.708 1.908 8.796 8.796 0 00-1.803 2.856A9.14 9.14 0 000 36.969c.01 2.052 1.616 3.702 3.569 3.702h16.655c1.953 0 3.558-1.65 3.569-3.702a9.14 9.14 0 00-.621-3.363 8.796 8.796 0 00-1.802-2.855 8.315 8.315 0 00-2.707-1.91 7.98 7.98 0 00-3.198-.67zM11.896 25.67c1.412 0 2.792-.44 3.966-1.263a7.432 7.432 0 002.629-3.366c.54-1.37.681-2.879.406-4.334a7.625 7.625 0 00-1.953-3.84 7.039 7.039 0 00-3.655-2.052 6.82 6.82 0 00-4.124.426 7.227 7.227 0 00-3.204 2.763A7.773 7.773 0 004.76 18.17c0 1.989.752 3.896 2.09 5.303 1.339 1.407 3.154 2.197 5.047 2.197z" fill="#34A5B2"/></svg>