<svg viewBox="0 0 39 41" fill="none" xmlns="http://www.w3.org/2000/svg"><path d="M.923 11.883l17.32 8.258a1.826 1.826 0 001.582 0l17.32-8.258c1.23-.587 1.23-2.54 0-3.125L19.824.502a1.827 1.827 0 00-1.582 0L.923 8.758c-1.23.586-1.23 2.54 0 3.125zm36.222 16.883l-4.303-2.049-12.034 5.732a4.111 4.111 0 01-1.774.404 4.111 4.111 0 01-1.774-.404L5.226 26.717l-4.303 2.05c-1.23.585-1.23 2.538 0 3.124l17.32 8.25a1.832 1.832 0 001.582 0l17.324-8.25c1.226-.585 1.226-2.539-.004-3.125z" fill="#226E77"/><path d="M.923 18.782l4.32-2.055L17.26 22.45a4.111 4.111 0 001.774.404c.612 0 1.217-.138 1.774-.404l12.018-5.724 4.319 2.057c1.23.586 1.23 2.539 0 3.125l-17.32 8.247a1.832 1.832 0 01-1.583 0L.922 21.907c-1.23-.586-1.23-2.539 0-3.125z" fill="#34A5B2"/></svg>
