<svg viewBox="0 0 30 24" fill="none" xmlns="http://www.w3.org/2000/svg">
<path d="M26.5125 5.9812C26.5313 6.24369 26.5313 6.50623 26.5313 6.76872C26.5313 14.7749 20.4375 24 9.30001 24C5.86874 24 2.68126 23.0062 0 21.2812C0.487518 21.3375 0.956221 21.3562 1.4625 21.3562C4.2937 21.3562 6.89999 20.4 8.98125 18.7687C6.31875 18.7125 4.08749 16.9687 3.31872 14.5687C3.69376 14.6249 4.06873 14.6624 4.46252 14.6624C5.00625 14.6624 5.55004 14.5874 6.05626 14.4562C3.28127 13.8937 1.19995 11.4562 1.19995 8.51246V8.43749C2.00617 8.88749 2.94375 9.16873 3.93743 9.20619C2.30617 8.11867 1.23747 6.26244 1.23747 4.16243C1.23747 3.03745 1.53741 2.0062 2.06244 1.10619C5.04371 4.78119 9.52498 7.18115 14.5499 7.44369C14.4562 6.99369 14.3999 6.52499 14.3999 6.05623C14.3999 2.71869 17.1 -3.05176e-05 20.4562 -3.05176e-05C22.1999 -3.05176e-05 23.7749 0.731218 24.8812 1.91247C26.2499 1.64998 27.5624 1.14371 28.725 0.449973C28.2749 1.85625 27.3187 3.03751 26.0624 3.78745C27.2812 3.65627 28.4625 3.31869 29.5499 2.84999C28.7251 4.04994 27.6938 5.11865 26.5125 5.9812V5.9812Z" fill="white"/>
</svg>
