<svg viewBox="0 0 51 40" fill="none" xmlns="http://www.w3.org/2000/svg"><g clip-path="url(#store1)"><path d="M1.192 7.54A1.259 1.259 0 00.63 9.218l4.47 8.945a1.259 1.259 0 001.68.563l1.354-.663L2.538 6.875l-1.346.664zm35.86-6.325c-.33.362-.677.708-1.041 1.036-2.82 2.538-6.552 3.937-10.511 3.937-3.959 0-7.688-1.399-10.509-3.937a14.627 14.627 0 01-1.04-1.036L4.778 5.762l5.6 11.203.825-.402A1.25 1.25 0 0113 17.688V37.5a2.5 2.5 0 002.5 2.5h20a2.5 2.5 0 002.5-2.5V17.68a1.251 1.251 0 011.797-1.125l.826.404 5.595-11.201-9.166-4.543zM49.81 7.543l-1.353-.671-5.594 11.187 1.347.66h.005a1.25 1.25 0 001.676-.563l4.475-8.937a1.25 1.25 0 00-.555-1.68v.004z" fill="#34A5B2"/><path d="M25.5 3.688c-4.054 0-7.53-1.516-9.1-3.688l-2.45 1.215c.33.362.677.708 1.041 1.036 2.82 2.538 6.553 3.937 10.509 3.937 3.956 0 7.69-1.399 10.51-3.937a14.65 14.65 0 001.04-1.036L34.603 0c-1.57 2.172-5.046 3.688-9.102 3.688zM2.538 6.874l5.596 11.19 2.245-1.1-5.6-11.203-2.24 1.113zm43.68-1.117l-5.6 11.201 2.245 1.1 5.595-11.191-2.24-1.11z" fill="#226E77"/></g><defs><clipPath id="store1"><path fill="#fff" transform="translate(.5)" d="M0 0h50v40H0z"/></clipPath></defs></svg>
