<svg viewBox="0 0 40 40" fill="none" xmlns="http://www.w3.org/2000/svg"><path d="M32.776 20.023c0 2.503-.766 4.897-2.073 6.965l5.226 5.226a20.144 20.144 0 004.029-12.086c0-4.572-1.524-8.71-4.136-12.083L30.7 13.159a12.413 12.413 0 012.073 6.857l.003.008z" fill="#226E77"/><path d="M19.924 32.868c-7.089-.013-12.832-5.756-12.847-12.845.01-7.091 5.755-12.838 12.847-12.851 2.614 0 5.009.765 6.97 2.073l5.116-5.122A20.151 20.151 0 0019.924.1C8.926.1 0 9.025 0 20.023c0 10.994 8.926 19.924 19.924 19.924a19.552 19.552 0 0012.086-4.14l-5.226-5.224c-1.853 1.524-4.243 2.285-6.86 2.285z" fill="#34A5B2"/></svg>
