<svg viewBox="0 0 24 24" fill="none" xmlns="http://www.w3.org/2000/svg">
<g clip-path="url(#open1)">
<path d="M19.6656 12.014C19.6656 13.5153 19.2062 14.9521 18.4219 16.1929L21.5575 19.3286C23.1266 17.2365 23.9747 14.692 23.9747 12.077C23.9747 9.33344 23.0602 6.85038 21.4931 4.82677L18.4204 7.89511C19.2304 9.11458 19.663 10.5457 19.6641 12.0096L19.6656 12.014Z" fill="#B6C7C9"/>
<path d="M11.9544 19.7207C7.7012 19.7127 4.25508 16.2672 4.24622 12.014C4.25266 7.75913 7.69949 4.311 11.9544 4.30294C13.5229 4.30294 14.9598 4.76239 16.1362 5.54667L19.206 2.47394C17.1135 0.906224 14.5691 0.0591189 11.9544 0.0596469C5.35533 0.0596469 0 5.41498 0 12.014C0 18.6102 5.35533 23.9684 11.9544 23.9684C14.5816 23.9757 17.1352 23.1008 19.206 21.4839L16.0704 18.3497C14.9583 19.2642 13.5244 19.7207 11.9544 19.7207Z" fill="white"/>
</g>
<defs>
<clipPath id="open1">
<rect width="24" height="24" fill="white"/>
</clipPath>
</defs>
</svg>
