<svg viewBox="0 0 1440 296" fill="none" xmlns="http://www.w3.org/2000/svg">
<path fill-rule="evenodd" clip-rule="evenodd" d="M0 0.000244141L60 7.00024C120 15.0002 240 29.0002 360 65.0002C480 101 600 159 720 151C840 144 960 72.0002 1080 72.0002C1200 72.0002 1320 108.445 1380 144.445L1440 180.445V296H1380C1320 296 1200 296 1080 296C960 296 840 296 720 296C600 296 480 296 360 296C240 296 120 296 60 296H0L0 0.000244141Z" fill="#212B2C"/>

<path d="M434.788 89.4961C409.859 80.9073 384.929 72.4791 360 65.0002C249.334 31.8006 138.669 17.3114 75.0625 8.98357C69.6975 8.28114 64.6672 7.62254 60 7.00024L3.05176e-05 0.000244141V141.274C30.9045 143.463 64.8891 144.996 100.495 145H100.77C140.274 144.996 181.768 143.108 223.263 138.146C293.771 129.714 364.28 111.774 434.788 89.4961Z" fill="url(#footerBg_1)" class="svg-overlay" opacity="0.75"/>
<g>
<path d="M1300.24 108.984C1235.52 125.748 1139.25 137.298 1037.11 125.084C997.726 120.375 958.345 112.699 918.965 102.958C972.643 86.4071 1026.32 72.0002 1080 72.0002C1159.15 72.0002 1238.31 87.857 1300.24 108.984Z" fill="url(#footerBg2)" class="svg-overlay" opacity="0.4"/>
</g>
<g>
<path d="M885.457 113.458C887.239 112.897 889.021 112.335 890.803 111.773C953.869 91.8867 1016.93 72.0002 1080 72.0002C1200 72.0002 1320 108.445 1380 144.445L1398.18 155.351C1340.04 176.113 1281.91 192 1223.77 192C1091.13 192 1009.83 160.949 907.704 121.938C900.403 119.149 892.996 116.32 885.457 113.458Z" fill="#E2E9E9"  class="svg-overlay" opacity="0.25"/>
</g>
<g>
<path d="M804.909 136.997C776.606 144.082 748.303 149.349 720 151C630 157 540 125.875 450 94.7502C420 84.3752 390 74.0002 360 65.0002C249.334 31.8006 138.669 17.3114 75.0625 8.98357C69.6975 8.28114 64.6672 7.62254 60 7.00024L3.05176e-05 0.000244141V241.159L58.3521 248.137C104.539 253.66 182.574 262.991 270.495 263H270.77C310.274 262.996 351.768 261.108 393.263 256.146C522.906 240.644 652.549 192.993 782.192 145.342C786.513 143.754 790.834 142.166 795.156 140.578C798.407 139.384 801.658 138.19 804.909 136.997Z" fill="url(#footerBg3)" class="svg-overlay" opacity="0.75"/>
</g>
<g>
<path d="M3.05176e-05 0.000244141V243.426L67.0275 218.821C134.055 193.045 268.11 142.664 402.165 159.067C461.399 166.833 520.632 187.637 579.866 208.442C654.687 234.721 729.509 261 804.33 261C888.26 261 972.19 227.933 1056.12 194.866L1056.12 194.866C1106.25 175.117 1156.37 155.369 1206.5 142.664C1251.32 131.303 1296.15 125.705 1338.47 123.594C1273.17 95.6097 1176.58 72.0002 1080 72.0002C1016.93 72.0002 953.869 91.8867 890.803 111.773C833.869 129.726 776.934 147.679 720 151C630 157 540 125.875 450 94.7502C420 84.3752 390 74.0002 360 65.0002C249.334 31.8006 138.669 17.3114 75.0625 8.98357C69.6975 8.28114 64.6672 7.62254 60 7.00024L3.05176e-05 0.000244141Z" fill="url(#footerBg4)"  class="svg-overlay" opacity="0.25"/>
</g>
<g>
<path d="M584.137 136.587C629.425 147.638 674.712 154.019 720 151C776.934 147.679 833.869 129.726 890.803 111.773C953.869 91.8867 1016.93 72.0002 1080 72.0002C1200 72.0002 1320 108.445 1380 144.445L1440 180.445L1440 257.246L1373.93 265.137C1306.85 273.146 1172.7 289.165 1038.55 273.146C908.726 257.644 778.903 209.993 649.08 162.342C644.752 160.754 640.425 159.166 636.097 157.578C618.837 151.248 601.512 144.144 584.137 136.587Z" fill="url(#footerBg5)" class="svg-overlay" opacity="0.4"/>
</g>
<g>
<path d="M481.031 105.425C470.687 101.905 460.344 98.3274 450 94.7502C420 84.3752 390 74.0002 360 65.0002C249.334 31.8006 138.669 17.3114 75.0625 8.98357C69.6975 8.28114 64.6672 7.62254 60 7.00024L0 0.000244141L0 100.645C60.3399 111.01 130.155 120.635 199.97 124.284C293.657 129.181 387.344 123.807 481.031 105.425Z" fill="white"  class="svg-overlay" opacity="0.5"/>
</g>
<defs>
<linearGradient id="footerBg_1" x1="625.156" y1="145" x2="625.156" y2="-273.779" gradientUnits="userSpaceOnUse">
<stop stop-opacity="0"/>
<stop offset="1"/>
</linearGradient>
<linearGradient id="footerBg2" x1="638" y1="171.938" x2="640" y2="-195.062" gradientUnits="userSpaceOnUse">
<stop stop-opacity="0"/>
<stop offset="0.752303"/>
</linearGradient>
<linearGradient id="footerBg3" x1="795.156" y1="263" x2="795.156" y2="-155.779" gradientUnits="userSpaceOnUse">
<stop stop-opacity="0"/>
<stop offset="1"/>
</linearGradient>
<linearGradient id="footerBg4" x1="804.33" y1="261" x2="804.33" y2="-110.41" gradientUnits="userSpaceOnUse">
<stop stop-color="white"/>
<stop offset="1" stop-color="white" stop-opacity="0"/>
</linearGradient>
<linearGradient id="footerBg5" x1="638.887" y1="320" x2="640.884" y2="-46.9994" gradientUnits="userSpaceOnUse">
<stop stop-opacity="0"/>
<stop offset="0.752303"/>
</linearGradient>
</defs>
</svg>
