<svg viewBox="0 0 1440 90" fill="none" xmlns="http://www.w3.org/2000/svg">
  <path fill="#11373B" d="M0 0h1440v90H0z"/>
  <path d="M183.537 90C107.44 66.48 40.232 34.445 0 15V0h1211.8L1020 65c-120-50-240-21-360 8l-8.182 1.91C629.896 80.03 607.973 85.15 586.051 90H183.537z" class="svg-soft-light" fill="url(#headerBg1)" opacity=".25"/>
  <g>
    <path d="M1440 0h-370.94c3.65 1.602 7.29 3.268 10.94 5 52.23 25.245 118.39 40.45 181.4 54.931 41.18 9.465 81.02 18.62 114.75 30.069H1440V0zM509.452 90c35.727-12.616 71.454-27.897 107.182-43.179C651.089 32.084 685.545 17.347 720 5a859.726 859.726 0 0114.346-5H40l20 12c34.849 20.91 89.938 53.963 153.512 78h295.94z" class="svg-soft-light" opacity=".5" fill="#11373B"/>
  </g>
  <path d="M1440 7.54V0H767l20 12c34.849 20.91 89.938 53.963 153.512 78h295.938c35.73-12.616 71.46-27.897 107.18-43.179 32.13-13.74 64.25-27.478 96.37-39.28z" fill="url(#headerBg2)" fill-opacity=".5" class="svg-soft-light" opacity=".5"/>
  <path d="M480.69 0C425.126 28.666 369.563 54.494 314 69.366 209.333 96.107 104.667 83.975 0 66.874V0h480.69z" fill="url(#headerBg3)" class="svg-soft-light" opacity="1"/>
  <g>
    <path class="svg-soft-light" opacity=".5" d="M607.483 0H0v90h201.462c17.835-5.626 35.652-11.657 53.606-17.735C294.973 58.757 335.552 45.021 378.5 35 450.809 17.525 529.835 6.223 607.483 0z" fill="url(#headerBg4)"/>
    <path class="svg-soft-light" d="M1134.45 90c-51.58-21.48-103.16-55.16-154.742-90H1440v90h-305.55z" fill="url(#headerBg5)" opacity=".5" />
    <path class="svg-soft-light" d="M607.483 0H0v90h201.462c17.835-5.626 35.652-11.657 53.606-17.735C294.973 58.757 335.552 45.021 378.5 35 450.809 17.525 529.835 6.223 607.483 0zM1134.45 90c-51.58-21.48-103.16-55.16-154.742-90H1440v90h-305.55z" opacity=".75"/>
  </g>
  <g>
    <path class="svg-soft-light" opacity=".25" fill="#fff" d="M1353.08 0h-11.14c-81.79 14.774-211.8 34.592-341.79 22.406C954.219 17.895 908.295 9.389 862.342 0h-9.936c49.163 10.159 98.361 19.566 147.551 24.397h.005C1136.1 37.16 1272.22 14.892 1353.08 0zM360.807 0h-6.723a2483.183 2483.183 0 00-33.869 10.907c-16.033 5.279-32.06 10.688-48.083 16.096C212.652 47.08 153.231 67.136 93.8 80.401l-.004.001C77.58 84.094 61.362 87.273 45.238 90H56.81a869.167 869.167 0 0037.426-7.647c59.544-13.29 119.098-33.392 178.592-53.473l.007-.003c16.007-5.402 32.009-10.804 48.005-16.07C334.165 8.42 347.487 4.125 360.807 0zM230.403 90c13.857-6.942 27.718-14.016 41.582-21.092h.002l.009-.005c16.022-8.177 32.05-16.357 48.086-24.34C352.706 28.32 385.356 12.898 418.026 0h5.493c-34.159 13.225-68.338 29.323-102.546 46.353-15.992 7.962-31.992 16.128-47.998 24.297l-.003.001C260.273 77.132 247.57 83.616 234.864 90h-4.461zM298.946 90h-3.67a3423.135 3423.135 0 0124.713-15.944C364.67 45.534 409.413 18.97 454.196 0h5.184c-46.054 18.99-92.151 46.273-138.315 75.741A3288.517 3288.517 0 00298.946 90zM1440 18.373l-62.07 23.64-.01.003-.01.003-3.53 1.284c-37.01 13.466-90.93 33.08-153.58 46.697h-9.69c66.47-13.61 123.82-34.474 162.68-48.61l3.42-1.246.02-.005L1440 16.233v2.14z"/>
    <path class="svg-overlay" opacity=".25" fill="#fff" d="M1438.31 0h1.69v1.583l-62.15 18.458-.01.004-3.52.998c-76.59 21.73-225.48 63.973-374.405 42.861h-.007C940.892 55.138 881.86 36.42 822.919 17.728c-16.563-5.252-33.118-10.502-49.664-15.528-2.432-.739-4.864-1.473-7.296-2.201h6.93l.947.287c16.601 5.043 33.191 10.304 49.775 15.562l.005.002c58.915 18.681 117.74 37.334 176.584 46.073 148.5 21.051 297.05-21.093 373.65-42.825l3.44-.975.01-.003L1438.31 0zM727.01 0h-6.243c17.462 5.84 34.934 12.328 52.416 19.137 16.539 6.443 33.091 13.173 49.65 19.906C869.878 58.172 916.993 77.329 964.114 90h7.899c-49.41-12.552-98.822-32.643-148.312-52.765-16.588-6.744-33.184-13.492-49.792-19.961C758.284 11.188 742.651 5.35 727.01 0z"/>
  </g>
  <defs>
    <linearGradient id="headerBg0" x1="523.5" y1="90" x2="523.5" y2="0" gradientUnits="userSpaceOnUse">
      <stop stop-color="#17494F"/>
      <stop offset="1" stop-color="#226E77"/>
    </linearGradient>
    <linearGradient id="headerBg1" x1="660" y1="119.637" x2="660" y2=".5" gradientUnits="userSpaceOnUse">
      <stop stop-color="#fff"/>
      <stop offset="1" stop-color="#fff" stop-opacity="0"/>
    </linearGradient>
    <linearGradient id="headerBg2" x1="964.5" y1="98.5" x2="1261" y2="-.5" gradientUnits="userSpaceOnUse">
      <stop/>
      <stop offset="1" stop-color="#fff"/>
    </linearGradient>
    <linearGradient id="headerBg3" x1="78.5" y1="75.936" x2="78.5" y2="-85.39" gradientUnits="userSpaceOnUse">
      <stop stop-color="#fff"/>
      <stop offset="1" stop-color="#113B40" stop-opacity="0"/>
    </linearGradient>
    <linearGradient id="headerBg4" x1="1021.5" y1="3" x2="1022.5" y2="120" gradientUnits="userSpaceOnUse">
      <stop offset=".049" stop-opacity=".26"/>
      <stop offset="1" stop-color="#fff"/>
    </linearGradient>
    <linearGradient id="headerBg5" x1="1021.5" y1="3" x2="1022.5" y2="120" gradientUnits="userSpaceOnUse">
      <stop offset=".049" stop-opacity=".26"/>
      <stop offset="1" stop-color="#fff"/>
    </linearGradient>
  </defs>
</svg>
