<svg viewBox="0 0 1440 345" fill="none" xmlns="http://www.w3.org/2000/svg">
<path d="M1440 0H0V345H1440V0Z" fill="#11373B"/>
<g>
<path d="M65.981 272.821L-1 297.425V1H1439V178.465C1371.71 174.335 1288.18 175.479 1204.66 196.664C1154.57 209.369 1104.48 229.117 1054.39 248.866C970.515 281.933 886.643 315 802.772 315C728.002 315 653.233 288.721 578.463 262.441C519.271 241.637 460.078 220.833 400.886 213.067C266.924 196.664 132.962 247.045 65.981 272.821Z" fill="url(#homeBgTop1)" class="svg-overlay" opacity="0.8"/>
</g>
<g>
<path d="M0 308.126L66.9822 316.136C133.964 324.146 267.929 340.165 401.893 324.146C531.536 308.643 661.179 260.992 790.822 213.342C795.143 211.753 799.465 210.165 803.786 208.578C937.75 159.376 1071.71 110.174 1205.68 118.183C1288.78 123.152 1371.89 150.578 1439 178.608V0H0V308.126Z" fill="url(#homeBgTop2)" class="svg-overlay" opacity="0.5"/>
</g>
<g>
<path d="M652.715 0C624.211 142.575 498.341 250 347.382 250C196.422 250 70.5526 142.575 42.0485 0H652.715Z" fill="url(#homeBgTop3)" class="svg-overlay" opacity="0.25"/>
</g>
<g>
<path d="M1419.96 0C1400.48 185.46 1243.62 330 1053 330C862.379 330 705.518 185.46 686.036 0H1419.96Z" fill="url(#homeBgTop4)" class="svg-overlay" opacity="0.25"/>
</g>
<g>
<path d="M0 177.481V0.754913H1439C1045 0.754913 821 51 720.25 90.122C716.378 91.5148 712.505 92.9086 708.633 94.3025C592.464 136.118 476.294 177.934 360.125 191.539C240.083 205.596 120.042 191.539 60.0208 184.51L0 177.481Z" fill="url(#homeBgTop5)" class="svg-overlay" opacity="0.25"/>
</g>
<g>
<path d="M60.0208 99.159L0 120.246V0H1439V33.7153L1380.48 26.8621C1379.17 26.7091 1377.84 26.5524 1376.48 26.3924C1315.23 19.1986 1197.8 5.40495 1080.38 33.8909C1035.49 44.7791 990.605 61.704 945.72 78.6289C870.563 106.968 795.407 135.308 720.25 135.308C653.25 135.308 586.25 112.786 519.25 90.2637C466.208 72.4338 413.167 54.6039 360.125 47.9487C240.083 33.8909 120.042 77.0683 60.0208 99.159Z" fill="url(#homeBgTop6)" class="svg-overlay" opacity="0.25"/>
</g>
<g class="svg-overlay" opacity="0.25">
<path d="M0 302.275C28.7707 295.119 58.094 285.423 87.4181 272.478C146.991 246.696 206.574 207.704 266.07 168.768C282.076 158.294 298.075 147.824 314.066 137.616C389.573 89.416 464.905 47.0588 540.161 37.2867C615.395 28.1711 690.692 51.6085 766.183 81.0121C782.723 87.4543 799.274 94.1841 815.833 100.918C874.777 124.885 933.831 148.897 992.868 160.138L992.876 160.14C1141.86 187.221 1290.8 133.039 1367.38 105.178L1370.91 103.893L1370.92 103.891L1370.93 103.888L1439 77.9625V75.8223L1370.23 102.014L1370.21 102.019L1366.79 103.264C1290.18 131.132 1141.68 185.154 993.236 158.173C934.417 146.971 875.614 123.063 816.701 99.1096C800.113 92.3652 783.517 85.6173 766.909 79.1484C691.395 49.7357 615.687 26.12 539.917 35.3017L539.908 35.3027C464.159 45.1374 388.486 87.737 312.99 135.93C296.949 146.17 280.916 156.661 264.89 167.149C205.413 206.071 146.022 244.937 86.6212 270.644L86.6145 270.647C57.5643 283.47 28.5132 293.096 0 300.214V302.275Z" fill="white"/>
<path d="M0 236.62C28.7459 231.042 58.0431 223.484 87.3414 213.398C146.904 193.294 206.477 162.89 265.972 132.526L265.975 132.524C281.981 124.355 297.981 116.189 313.973 108.228C389.472 70.6417 464.831 37.5917 540.135 29.9662C615.428 22.8517 690.768 41.1454 766.255 64.0757C782.801 69.1017 799.357 74.3516 815.919 79.6036C874.86 98.2943 933.892 117.014 992.908 125.778L992.915 125.779C1141.84 146.891 1290.73 104.648 1367.32 82.9177L1370.84 81.9194L1370.86 81.9159L1439 61.6759V59.5896L1370.3 79.9952L1370.29 79.9987L1366.85 80.9739C1290.25 102.706 1141.7 144.85 993.197 123.799C934.356 115.06 875.531 96.407 816.616 77.7254L816.611 77.7239C800.027 72.4654 783.437 67.2046 766.837 62.162C691.319 39.2226 615.655 20.8204 539.943 27.9755L539.936 27.9761C464.235 35.6412 388.588 68.8478 313.082 106.437C297.047 114.42 281.018 122.601 264.996 130.778L264.988 130.782L264.986 130.783C205.508 161.138 146.108 191.453 86.6986 211.504L86.6928 211.506C57.6162 221.516 28.5385 229.029 0 234.583V236.62Z" fill="white"/>
<path d="M0 159.57C28.7121 155.883 57.9737 150.89 87.2362 144.228C146.781 130.937 206.334 110.835 265.828 90.7543L265.836 90.7518C281.842 85.3491 297.844 79.9479 313.84 74.6812C389.334 49.8254 464.734 27.9522 540.102 22.905C615.466 18.1951 690.86 30.3058 766.349 45.4711C782.902 48.7965 799.462 52.2694 816.026 55.7432L816.031 55.7441C874.968 68.1043 933.968 80.4776 992.957 86.2712L992.962 86.2716C1141.82 100.227 1290.65 72.3011 1367.25 57.9289L1370.75 57.271L1370.76 57.2693L1439 43.8656V41.8274L1370.39 55.3052L1370.38 55.3068L1366.92 55.9548C1290.33 70.3266 1141.73 98.2092 993.15 84.2805C934.282 78.4986 875.425 66.1558 816.505 53.7997L816.504 53.7995C799.923 50.3222 783.336 46.8438 766.743 43.5103C691.227 28.3396 615.616 16.1814 539.974 20.909L539.97 20.9093C464.332 25.9744 388.726 47.9199 313.215 72.7816C297.182 78.0602 281.155 83.4697 265.132 88.8778C205.652 108.954 146.231 129.01 86.8005 142.276L86.7964 142.277C57.6845 148.905 28.5718 153.878 0 157.554V159.57Z" fill="white"/>
</g>
<defs>
<linearGradient id="homeBgTop1" x1="802.771" y1="315" x2="802.771" y2="-56.4105" gradientUnits="userSpaceOnUse">
<stop stop-color="white"/>
<stop offset="1" stop-color="white" stop-opacity="0"/>
</linearGradient>
<linearGradient id="homeBgTop2" x1="803.786" y1="331" x2="803.786" y2="-87.779" gradientUnits="userSpaceOnUse">
<stop stop-opacity="0"/>
<stop offset="1"/>
</linearGradient>
<linearGradient id="homeBgTop3" x1="347.382" y1="250" x2="347.382" y2="-372.763" gradientUnits="userSpaceOnUse">
<stop stop-color="white"/>
<stop offset="1" stop-opacity="0"/>
</linearGradient>
<linearGradient id="homeBgTop4" x1="1053" y1="330" x2="1053" y2="-408" gradientUnits="userSpaceOnUse">
<stop stop-color="white"/>
<stop offset="1" stop-opacity="0"/>
</linearGradient>
<linearGradient id="homeBgTop5" x1="719.5" y1="0.754913" x2="719.5" y2="197.554" gradientUnits="userSpaceOnUse">
<stop offset="0.0807983" stop-opacity="0"/>
<stop offset="1"/>
</linearGradient>
<linearGradient id="homeBgTop6" x1="720.25" y1="135.308" x2="720.25" y2="-183" gradientUnits="userSpaceOnUse">
<stop stop-color="white"/>
<stop offset="1" stop-color="white" stop-opacity="0"/>
</linearGradient>
</defs>
</svg>
