<svg viewBox="0 0 1440 316" fill="none" xmlns="http://www.w3.org/2000/svg">
<path d="M1440 0H0V305H1440V0Z" fill="#11373B"/>
<g class="svg-overlay" opacity="0.5">
<path d="M0 185.011V305H1439V174.594C1371.89 179.303 1288.78 181.541 1205.68 172.244C1166.83 168.187 1127.98 161.694 1089.13 155.2L1089.13 155.2C994.015 139.302 898.901 123.404 803.786 143.268C750.201 154.858 696.615 177.959 643.029 201.06C562.65 235.711 482.271 270.363 401.893 266.166C356.486 263.796 311.079 266.91 268.28 269.845C184.81 275.569 111.261 280.612 66.9822 242.963L0 185.011Z" fill="#0E1213"/>
</g>
<g>
<path d="M1439 305H462C524.033 286.818 586.066 261.488 648.099 236.158C702.073 214.119 756.046 192.08 810.02 174.749C944.023 131.72 1078.03 117.711 1212.03 124.716C1292.53 128.924 1373.03 141.076 1439 153.146V305Z" fill="white" class="svg-overlay" opacity="0.5"/>
</g>
<path d="M0 191.766V305H464.561C429.707 295.921 394.854 286.055 360 275.599C295.465 256.239 230.929 245.892 175.726 237.042C128.283 229.436 87.7323 222.934 60 212.766L0 191.766Z" fill="#34A5B2"/>
<path d="M1130.78 305H1440V109.599L1380 153.599C1328.49 190.513 1232.77 259.116 1130.78 305Z" fill="#34A5B2"/>
<g>
<path d="M1440 305L1440 197.978L1380 210.616C1378.42 210.927 1376.8 211.247 1375.13 211.574C1313.68 223.679 1196.84 246.691 1080 240.948C960 235.05 840 197.978 720 155.85C600 113.723 480 92.3678 360 98.2657C240 104.164 120 137.314 60.0001 167.646L0.00012207 197.978L0.00012207 305H1440Z" fill="#11373B" class="svg-overlay" opacity="0.5"/>
</g>
<g>
<path d="M1440 305V156.266L1380 148.266C1320 141.266 1200 127.266 1080 148.266C963.243 169.671 846.486 225.157 729.73 280.643C726.486 282.184 723.243 283.725 720 285.266C706.314 291.881 692.629 298.482 678.943 305H1440Z" fill="white" class="svg-overlay" opacity="0.2"/>
</g>
<g>
<path d="M1133.99 316H523.135C523.128 315.147 523.125 314.292 523.125 313.438C523.125 144.749 659.874 8 828.562 8C997.251 8 1134 144.749 1134 313.438C1134 314.292 1134 315.147 1133.99 316Z" fill="url(#homeBgBottom1)" class="svg-overlay" opacity="0.5"/>
</g>
<g class="svg-overlay" opacity="0.25">
<path d="M1364.34 122.285L1439 107.675V109.713L1364.72 124.249L1364.71 124.251L1361.2 124.906C1284.63 139.219 1135.85 167.031 987.046 153.133L987.042 153.132C928.073 147.362 869.094 135.04 810.177 122.731L810.165 122.728L810.151 122.726L810.148 122.725C793.598 119.267 777.051 115.81 760.512 112.5C685.049 97.3967 609.681 85.3357 534.343 90.0262C459.001 95.0527 383.627 116.836 308.159 141.59C292.165 146.836 276.166 152.216 260.163 157.597L260.161 157.598C200.689 177.596 141.157 197.614 81.6345 210.851C54.2726 217.057 26.9115 221.809 0 225.401V223.384C26.7707 219.803 53.9835 215.072 81.1955 208.899L81.1996 208.898C140.609 195.687 200.01 175.713 259.47 155.72L259.48 155.716C275.494 150.331 291.512 144.945 307.535 139.69C383.021 114.93 458.6 93.0748 534.211 88.0305L534.216 88.0303C609.83 83.3221 685.415 95.4302 760.905 110.539C777.492 113.858 794.073 117.322 810.649 120.786C869.548 133.091 928.386 145.383 987.234 151.142C1135.76 165.013 1284.31 137.245 1360.88 122.932L1364.33 122.287L1364.34 122.285Z" fill="white"/>
<path d="M0 299.723V301.762C26.945 296.326 54.3412 289.134 81.7383 279.737C141.28 259.716 200.833 229.437 260.307 199.197L260.312 199.195L260.521 199.088L260.547 199.074C276.468 190.98 292.384 182.889 308.292 174.999C383.764 137.567 459.096 104.653 534.374 97.0587C609.642 89.9729 684.957 108.192 760.419 131.028C776.946 136.029 793.483 141.254 810.028 146.48L810.031 146.481L810.047 146.486L810.065 146.492L810.066 146.492C868.987 165.106 927.997 183.748 986.993 192.477L986.999 192.478C1135.88 213.502 1284.71 171.434 1361.28 149.793L1364.8 148.798L1364.81 148.795L1439 126.841V124.756L1364.25 146.874L1364.24 146.877L1360.8 147.848C1284.23 169.491 1135.73 211.462 987.282 190.498C928.461 181.795 869.655 163.218 810.76 144.613L810.755 144.612C794.177 139.375 777.592 134.136 760.998 129.114C685.507 106.269 609.869 87.9421 534.184 95.0677L534.177 95.0684C458.503 102.702 382.883 135.772 307.403 173.207C291.37 181.159 275.345 189.307 259.326 197.451C199.868 227.682 140.488 257.873 81.0979 277.843L81.0922 277.845C53.9152 287.165 26.7374 294.312 0 299.723Z" fill="white"/>
<path d="M144.444 305H148.519C185.833 283.909 223.136 259.589 260.405 235.291L260.413 235.285L260.419 235.282L260.42 235.281C276.415 224.853 292.404 214.429 308.384 204.266C383.865 156.264 459.171 114.081 534.402 104.349C609.611 95.2707 684.882 118.612 760.347 147.895C776.881 154.311 793.426 161.013 809.98 167.719C868.904 191.587 927.937 215.5 986.953 226.696L986.961 226.698C1135.89 253.667 1284.77 199.708 1361.33 171.961L1364.86 170.682L1364.87 170.679L1439 142.554V140.415L1364.18 168.802L1364.17 168.807L1360.74 170.047C1284.17 197.801 1135.72 251.601 987.321 224.73C928.521 213.575 869.738 189.764 810.845 165.91C794.263 159.193 777.672 152.473 761.07 146.03C685.582 116.738 609.901 93.2199 534.158 102.364L534.15 102.365C458.428 112.159 382.782 154.583 307.311 202.579C291.275 212.776 275.249 223.225 259.228 233.669L259.227 233.67C220.939 258.632 182.686 283.57 144.444 305Z" fill="white"/>
</g>
<defs>
<linearGradient id="homeBgBottom1" x1="828.562" y1="618.875" x2="828.562" y2="8" gradientUnits="userSpaceOnUse">
<stop stop-color="white"/>
<stop offset="1" stop-color="white" stop-opacity="0.5"/>
</linearGradient>
</defs>
</svg>
