<?xml version="1.0" encoding="UTF-8" standalone="no"?>
<!DOCTYPE svg PUBLIC "-//W3C//DTD SVG 1.1//EN" "http://www.w3.org/Graphics/SVG/1.1/DTD/svg11.dtd">
<svg width="100%" height="100%" viewBox="0 0 291 80" version="1.1" xmlns="http://www.w3.org/2000/svg" xmlns:xlink="http://www.w3.org/1999/xlink" xml:space="preserve" xmlns:serif="http://www.serif.com/" style="fill-rule:evenodd;clip-rule:evenodd;stroke-linejoin:round;stroke-miterlimit:2;">
    <g transform="matrix(1,0,0,1,-187.651,-1828.37)">
        <g transform="matrix(1,0,0,1.52573,1106.03,1555.69)">
            <g transform="matrix(1,0,0,0.655424,-1106.03,-1019.63)">
                <path d="M214.573,1907.39C209.101,1907.39 204.012,1906.49 199.306,1904.7C194.601,1902.92 190.716,1900.35 187.651,1896.99L196.406,1886.7C198.23,1889.04 200.656,1890.99 203.684,1892.56C206.712,1894.13 210.086,1894.91 213.807,1894.91C216.068,1894.91 217.929,1894.58 219.388,1893.92C220.847,1893.27 221.577,1892.25 221.577,1890.86C221.577,1889.84 221.212,1889.02 220.482,1888.4C219.753,1887.78 218.294,1887.25 216.105,1886.81L208.444,1885.28C201.586,1883.89 196.716,1881.83 193.835,1879.1C190.953,1876.36 189.512,1872.77 189.512,1868.32C189.512,1865.33 190.424,1862.46 192.248,1859.73C194.072,1856.99 196.881,1854.77 200.674,1853.05C204.468,1851.34 209.32,1850.48 215.229,1850.48C220.774,1850.48 225.662,1851.28 229.894,1852.89C234.125,1854.49 237.481,1856.83 239.962,1859.89L231.098,1869.96C229.347,1867.77 227.085,1866.06 224.313,1864.82C221.54,1863.58 218.768,1862.95 215.995,1862.95C214.244,1862.95 212.767,1863.12 211.563,1863.45C210.359,1863.78 209.466,1864.23 208.882,1864.82C208.298,1865.4 208.007,1866.13 208.007,1867C208.007,1867.95 208.463,1868.77 209.375,1869.47C210.286,1870.16 211.983,1870.76 214.463,1871.27L224.422,1873.24C230.04,1874.26 234.089,1876.12 236.569,1878.82C239.05,1881.52 240.29,1884.77 240.29,1888.56C240.29,1892.14 239.342,1895.35 237.445,1898.19C235.548,1901.04 232.703,1903.28 228.909,1904.92C225.115,1906.57 220.336,1907.39 214.573,1907.39ZM269.917,1850.48C275.462,1850.48 280.077,1851.26 283.761,1852.83C287.445,1854.4 290.327,1856.48 292.406,1859.07C294.486,1861.66 295.781,1864.45 296.291,1867.44L279.11,1873.13C278.599,1870 277.669,1867.64 276.319,1866.07C274.97,1864.51 273.018,1863.72 270.464,1863.72C268.13,1863.72 266.178,1864.25 264.61,1865.31C263.041,1866.37 261.855,1868.04 261.053,1870.34C260.25,1872.64 259.849,1875.58 259.849,1879.15C259.849,1882.73 260.287,1885.63 261.162,1887.85C262.038,1890.08 263.278,1891.68 264.883,1892.67C266.488,1893.65 268.385,1894.14 270.574,1894.14C272.398,1894.14 273.912,1893.8 275.115,1893.1C276.319,1892.41 277.322,1891.41 278.125,1890.1C278.927,1888.78 279.438,1887.18 279.657,1885.28L296.401,1890.64C295.89,1893.85 294.522,1896.72 292.297,1899.23C290.072,1901.75 287.135,1903.74 283.487,1905.2C279.839,1906.66 275.571,1907.39 270.683,1907.39C264.701,1907.39 259.484,1906.27 255.034,1904.05C250.584,1901.82 247.155,1898.58 244.747,1894.31C242.339,1890.04 241.136,1884.91 241.136,1878.93C241.136,1872.95 242.339,1867.83 244.747,1863.56C247.155,1859.29 250.529,1856.04 254.87,1853.82C259.211,1851.59 264.227,1850.48 269.917,1850.48ZM385.511,1903.68C383.92,1904.6 380.878,1906.17 379.01,1906.62C376.894,1907.13 374.815,1907.39 372.772,1907.39C367.726,1907.39 363.879,1906.38 361.233,1904.36C356.802,1907.35 350.916,1907.28 347.93,1907.28C345.085,1907.28 342.568,1906.82 340.379,1905.91C338.19,1905 336.476,1903.61 335.236,1901.75C334.766,1901.05 334.324,1900.05 334.032,1899.21L334.034,1899.2C334.037,1899.19 334.03,1899.19 334.031,1899.2L334.032,1899.21C333.652,1899.9 333.196,1900.54 332.664,1901.15C330.803,1903.26 328.396,1904.83 325.441,1905.85C322.486,1906.88 319.404,1907.39 316.194,1907.39C312.473,1907.39 309.226,1906.8 306.454,1905.63C303.681,1904.47 301.547,1902.77 300.052,1900.55C298.556,1898.32 297.808,1895.57 297.808,1892.28C297.808,1888.34 298.994,1885.08 301.365,1882.49C303.736,1879.9 307.475,1878.09 312.582,1877.07L331.515,1873.16L331.515,1871.6C331.515,1869.05 330.803,1867.02 329.381,1865.53C327.958,1864.03 326.043,1863.28 323.635,1863.28C321.228,1863.28 319.167,1863.88 317.452,1865.09C315.738,1866.29 314.552,1868.43 313.895,1871.49L298.137,1867.77C299.158,1862.52 301.858,1858.32 306.235,1855.18C310.612,1852.05 316.777,1850.48 324.73,1850.48C330.056,1850.48 334.597,1851.26 338.354,1852.83C342.112,1854.4 344.994,1856.74 347,1859.84C349.006,1862.94 350.009,1866.75 350.009,1871.27L350.009,1891.3C350.009,1894.14 351.286,1895.57 353.84,1895.57C354.896,1895.57 355.788,1895.47 356.514,1895.28C356.263,1893.72 356.138,1891.99 356.138,1890.1L356.138,1828.37L374.742,1828.37L374.742,1887.69C374.742,1890.1 375.143,1891.81 375.946,1892.83C376.748,1893.85 378.098,1894.36 379.995,1894.36C380.134,1894.36 380.271,1894.36 380.404,1894.36C380.333,1893.69 380.297,1893 380.297,1892.28C380.297,1888.34 381.483,1885.08 383.854,1882.49C386.225,1879.9 389.964,1878.09 395.071,1877.07L414.004,1873.16L414.004,1871.6C414.004,1869.05 413.292,1867.02 411.87,1865.53C410.447,1864.03 408.532,1863.28 406.124,1863.28C403.717,1863.28 401.656,1863.88 399.941,1865.09C398.227,1866.29 397.041,1868.43 396.384,1871.49L380.626,1867.77C381.647,1862.52 384.346,1858.32 388.724,1855.18C393.101,1852.05 399.266,1850.48 407.219,1850.48C412.544,1850.48 417.086,1851.26 420.843,1852.83C424.601,1854.4 427.483,1856.74 429.489,1859.84C431.495,1862.94 432.498,1866.75 432.498,1871.27L432.498,1891.3C432.498,1894.14 433.775,1895.57 436.329,1895.57C437.067,1895.57 437.725,1895.52 438.301,1895.43L438.301,1851.57L454.717,1851.57L455.483,1863.39C456.869,1859.31 458.93,1856.13 461.666,1853.87C464.402,1851.61 467.886,1850.48 472.117,1850.48C473.503,1850.48 474.689,1850.59 475.674,1850.81C476.659,1851.03 477.443,1851.32 478.027,1851.68L476.166,1867C475.437,1866.71 474.507,1866.48 473.376,1866.29C472.245,1866.11 470.877,1866.02 469.272,1866.02C467.083,1866.02 465.04,1866.49 463.143,1867.44C461.247,1868.39 459.733,1869.8 458.602,1871.65C457.471,1873.52 456.906,1875.87 456.906,1878.71L456.906,1906.29L439.518,1906.29C436.061,1907.31 432.521,1907.28 430.419,1907.28C427.574,1907.28 425.057,1906.82 422.868,1905.91C420.679,1905 418.965,1903.61 417.724,1901.75C417.254,1901.05 416.813,1900.05 416.521,1899.21L416.523,1899.2C416.526,1899.19 416.519,1899.19 416.52,1899.2L416.521,1899.21C416.141,1899.9 415.685,1900.54 415.153,1901.15C413.292,1903.26 410.885,1904.83 407.93,1905.85C404.975,1906.88 401.893,1907.39 398.683,1907.39C394.962,1907.39 391.715,1906.8 388.943,1905.63C387.663,1905.1 386.519,1904.44 385.511,1903.68ZM322.65,1884.84C320.462,1885.28 318.838,1885.92 317.78,1886.76C316.723,1887.6 316.194,1888.86 316.194,1890.53C316.194,1892.14 316.777,1893.34 317.945,1894.14C319.112,1894.95 320.498,1895.35 322.103,1895.35C323.343,1895.35 324.529,1895.16 325.66,1894.8C326.791,1894.44 327.794,1893.87 328.669,1893.1C329.545,1892.34 330.238,1891.37 330.749,1890.2C331.259,1889.04 331.515,1887.65 331.515,1886.05L331.515,1883L322.65,1884.84ZM405.139,1884.84C402.951,1885.28 401.327,1885.92 400.269,1886.76C399.212,1887.6 398.683,1888.86 398.683,1890.53C398.683,1892.14 399.266,1893.34 400.434,1894.14C401.601,1894.95 402.987,1895.35 404.592,1895.35C405.832,1895.35 407.018,1895.16 408.149,1894.8C409.28,1894.44 410.283,1893.87 411.158,1893.1C412.034,1892.34 412.727,1891.37 413.238,1890.2C413.748,1889.04 414.004,1887.65 414.004,1886.05L414.004,1883L405.139,1884.84Z" style="fill-rule:nonzero;"/>
            </g>
        </g>
    </g>
</svg>
