<svg width="89" height="24" viewBox="0 0 89 24" fill="none" xmlns="http://www.w3.org/2000/svg">
<path d="M8.17676 24C6.51481 24 4.96917 23.7266 3.53986 23.183C2.11086 22.6424 0.930904 21.8618 0 20.8413L2.65908 17.716C3.21306 18.4267 3.94989 19.019 4.86955 19.4958C5.78922 19.9727 6.81397 20.2096 7.94412 20.2096C8.63083 20.2096 9.19605 20.1093 9.63918 19.9089C10.0823 19.7115 10.304 19.4017 10.304 18.9795C10.304 18.6697 10.1932 18.4207 9.97145 18.2324C9.75004 18.044 9.30691 17.8831 8.64206 17.7494L6.31526 17.2847C4.23235 16.8626 2.75323 16.2369 1.87821 15.4077C1.00289 14.5755 0.565222 13.4852 0.565222 12.1336C0.565222 11.2255 0.842217 10.3538 1.3962 9.52467C1.95019 8.69248 2.80334 8.01824 3.95535 7.49584C5.10767 6.97648 6.58132 6.71526 8.37601 6.71526C10.0601 6.71526 11.5447 6.95824 12.8301 7.44723C14.1151 7.93319 15.1344 8.64389 15.8879 9.57328L13.1957 12.6317C12.6639 11.9666 11.9769 11.4472 11.135 11.0706C10.2928 10.694 9.45087 10.5026 8.60865 10.5026C8.07684 10.5026 7.62825 10.5543 7.26257 10.6545C6.89689 10.7547 6.62566 10.8914 6.44829 11.0706C6.27092 11.2468 6.18254 11.4685 6.18254 11.7327C6.18254 12.0213 6.32103 12.2703 6.59803 12.4829C6.87471 12.6925 7.39013 12.8747 8.14335 13.0296L11.1681 13.6279C12.8744 13.9377 14.1042 14.5026 14.8574 15.3227C15.6109 16.1427 15.9875 17.1299 15.9875 18.281C15.9875 19.3683 15.6996 20.3432 15.1235 21.2057C14.5473 22.0714 13.6832 22.7517 12.5309 23.2498C11.3786 23.751 9.92711 24 8.17676 24ZM24.9859 6.71526C26.67 6.71526 28.0717 6.95215 29.1906 7.42899C30.3095 7.90583 31.1848 8.53757 31.8162 9.3242C32.448 10.1108 32.8413 10.9582 32.9962 11.8663L27.778 13.5945C27.6228 12.6439 27.3403 11.9271 26.9303 11.4502C26.5206 10.9764 25.9277 10.7365 25.152 10.7365C24.4431 10.7365 23.8503 10.8975 23.374 11.2195C22.8975 11.5414 22.5373 12.0486 22.2937 12.7471C22.0498 13.4457 21.928 14.3387 21.928 15.4229C21.928 16.5103 22.061 17.391 22.3268 18.0653C22.5929 18.7426 22.9695 19.2286 23.4569 19.5292C23.9444 19.8269 24.5206 19.9757 25.1854 19.9757C25.7394 19.9757 26.1992 19.8724 26.5646 19.6598C26.9303 19.4503 27.2349 19.1465 27.4788 18.7487C27.7224 18.3477 27.8776 17.8618 27.9441 17.2847L33.0296 18.9127C32.8744 19.8876 32.4589 20.7593 31.7831 21.5216C31.1074 22.287 30.2153 22.8914 29.1074 23.3348C27.9994 23.7783 26.7031 24 25.2185 24C23.4017 24 21.8172 23.6598 20.4656 22.9856C19.114 22.3083 18.0726 21.3242 17.3412 20.0273C16.6099 18.7305 16.2445 17.1724 16.2445 15.3561C16.2445 13.5399 16.6099 11.9848 17.3412 10.6879C18.0726 9.39106 19.0973 8.40393 20.4158 7.72967C21.7342 7.05238 23.2577 6.71526 24.9859 6.71526ZM60.0941 22.8732C59.6109 23.1526 58.687 23.6295 58.1197 23.7661C57.477 23.921 56.8456 24 56.2251 24C54.6925 24 53.5241 23.6932 52.7204 23.0797C51.3746 23.9878 49.5869 23.9666 48.68 23.9666C47.8159 23.9666 47.0515 23.8269 46.3866 23.5505C45.7218 23.2741 45.2012 22.8519 44.8246 22.287C44.6818 22.0744 44.5476 21.7707 44.4589 21.5156L44.4595 21.5125C44.4604 21.5095 44.4583 21.5095 44.4586 21.5125L44.4589 21.5156C44.3435 21.7251 44.205 21.9195 44.0434 22.1048C43.4782 22.7456 42.7472 23.2225 41.8497 23.5323C40.9522 23.8451 40.0161 24 39.0412 24C37.911 24 36.9248 23.8208 36.0829 23.4654C35.2407 23.1131 34.5926 22.5968 34.1385 21.9226C33.6841 21.2453 33.457 20.41 33.457 19.4108C33.457 18.2141 33.8172 17.224 34.5373 16.4374C35.2574 15.6507 36.393 15.101 37.9441 14.7912L43.6945 13.6037V13.1298C43.6945 12.3553 43.4782 11.7388 43.0463 11.2863C42.6141 10.8307 42.0325 10.6029 41.3011 10.6029C40.5701 10.6029 39.9441 10.7851 39.4232 11.1526C38.9027 11.5171 38.5424 12.167 38.3429 13.0964L33.5569 11.9666C33.867 10.3721 34.687 9.09645 36.0164 8.14276C37.3458 7.19212 39.2182 6.71526 41.6337 6.71526C43.2513 6.71526 44.6305 6.95215 45.7716 7.42899C46.913 7.90583 47.7883 8.61654 48.3976 9.55808C49.0068 10.4996 49.3115 11.6568 49.3115 13.0296V19.1131C49.3115 19.9757 49.6993 20.41 50.475 20.41C50.7957 20.41 51.0667 20.3797 51.2872 20.3219C51.2109 19.8481 51.173 19.3227 51.173 18.7487V0H56.8234V18.0167C56.8234 18.7487 56.9452 19.268 57.1891 19.5778C57.4327 19.8876 57.8427 20.0425 58.4188 20.0425C58.461 20.0425 58.5027 20.0425 58.543 20.0425C58.5215 19.839 58.5106 19.6295 58.5106 19.4108C58.5106 18.2141 58.8708 17.224 59.5909 16.4374C60.311 15.6507 61.4466 15.101 62.9977 14.7912L68.7481 13.6037V13.1298C68.7481 12.3553 68.5318 11.7388 68.0999 11.2863C67.6677 10.8307 67.0861 10.6029 66.3547 10.6029C65.6237 10.6029 64.9977 10.7851 64.4768 11.1526C63.9563 11.5171 63.596 12.167 63.3965 13.0964L58.6105 11.9666C58.9206 10.3721 59.7403 9.09645 61.07 8.14276C62.3994 7.19212 64.2718 6.71526 66.6873 6.71526C68.3046 6.71526 69.6841 6.95215 70.8252 7.42899C71.9666 7.90583 72.8419 8.61654 73.4512 9.55808C74.0604 10.4996 74.3651 11.6568 74.3651 13.0296V19.1131C74.3651 19.9757 74.7529 20.41 75.5286 20.41C75.7528 20.41 75.9526 20.3948 76.1276 20.3675V7.0463H81.1134L81.3461 10.6363C81.767 9.39712 82.393 8.43128 83.224 7.74487C84.055 7.05846 85.1131 6.71526 86.3982 6.71526C86.8191 6.71526 87.1793 6.74869 87.4785 6.81551C87.7777 6.88233 88.0158 6.9704 88.1932 7.07974L87.6279 11.7327C87.4065 11.6446 87.1241 11.5748 86.7806 11.5171C86.4371 11.4624 86.0216 11.4351 85.5341 11.4351C84.8692 11.4351 84.2487 11.5778 83.6726 11.8663C83.0967 12.1549 82.6369 12.5831 82.2934 13.145C81.9499 13.713 81.7783 14.4267 81.7783 15.2893V23.6659H76.4972C75.4472 23.9757 74.3721 23.9666 73.7336 23.9666C72.8696 23.9666 72.1051 23.8269 71.4402 23.5505C70.7754 23.2741 70.2548 22.8519 69.8779 22.287C69.7352 22.0744 69.6012 21.7707 69.5125 21.5156L69.5131 21.5125C69.514 21.5095 69.5119 21.5095 69.5122 21.5125L69.5125 21.5156C69.3971 21.7251 69.2586 21.9195 69.097 22.1048C68.5318 22.7456 67.8008 23.2225 66.9033 23.5323C66.0058 23.8451 65.0697 24 64.0948 24C62.9646 24 61.9784 23.8208 61.1365 23.4654C60.7478 23.3045 60.4003 23.104 60.0941 22.8732ZM41.002 17.1511C40.3374 17.2847 39.8442 17.4791 39.5229 17.7342C39.2018 17.9894 39.0412 18.3721 39.0412 18.8793C39.0412 19.3683 39.2182 19.7327 39.573 19.9757C39.9274 20.2217 40.3484 20.3432 40.8358 20.3432C41.2124 20.3432 41.5727 20.2855 41.9162 20.1762C42.2597 20.0668 42.5643 19.8937 42.8301 19.6598C43.0961 19.429 43.3066 19.1344 43.4618 18.779C43.6167 18.4267 43.6945 18.0046 43.6945 17.5186V16.5923L41.002 17.1511ZM66.0556 17.1511C65.391 17.2847 64.8978 17.4791 64.5765 17.7342C64.2554 17.9894 64.0948 18.3721 64.0948 18.8793C64.0948 19.3683 64.2718 19.7327 64.6266 19.9757C64.981 20.2217 65.402 20.3432 65.8894 20.3432C66.2661 20.3432 66.6263 20.2855 66.9698 20.1762C67.3133 20.0668 67.6179 19.8937 67.8837 19.6598C68.1497 19.429 68.3602 19.1344 68.5154 18.779C68.6703 18.4267 68.7481 18.0046 68.7481 17.5186V16.5923L66.0556 17.1511Z" fill="white"/>
</svg>
