<svg viewBox="0 0 1439 266" fill="none" xmlns="http://www.w3.org/2000/svg">
<rect y="0.5" width="1439" height="265.5" fill="#11373B"/>
<g>
<path d="M0 23.3736L66.9822 15.364C113.169 9.84099 191.204 0.509718 279.125 0.500008C279.217 0.499997 279.308 0.499997 279.4 0.500008C318.904 0.504372 360.398 2.39243 401.893 7.35429C531.536 22.8568 661.179 70.5075 790.822 118.158C795.143 119.747 799.465 121.335 803.786 122.922C937.75 172.124 1071.71 221.326 1205.68 213.317C1245.26 210.95 1284.84 237.089 1322.7 262.088C1324.68 263.396 1326.66 264.702 1328.63 266H0V23.3736Z" fill="url(#fourBottom1)" class="svg-overlay" opacity="0.75"/>
</g>
<g>
<path d="M0 99.5746V266H1439V218.596C1371.88 222.653 1288.77 221.416 1205.66 200.336C1155.57 187.631 1105.48 167.883 1055.39 148.135L1055.39 148.134C971.515 115.067 887.643 82 803.772 82C729.002 82 654.233 108.279 579.463 134.559C520.271 155.363 461.078 176.167 401.886 183.933C267.924 200.336 133.962 149.955 66.981 124.179L0 99.5746Z" fill="url(#fourBottom2)" class="svg-overlay" opacity="0.25"/>
</g>
<g>
<path d="M1439 64.7541V266H0.999756V194.392C68.1133 222.422 151.217 249.848 234.321 254.817C368.285 262.826 502.25 213.624 636.214 164.422C640.535 162.835 644.857 161.247 649.178 159.658C778.821 112.008 908.464 64.3568 1038.11 48.8543C1172.07 32.835 1306.04 48.8543 1373.02 56.864L1439 64.7541Z" fill="url(#fourBottom3)" class="svg-overlay" opacity="0.4"/>
</g>
<g>
<path d="M1069.26 266H1V99.9619C73.1362 86.7642 161.154 73.4769 249.171 68.876C395.691 61.2171 542.211 76.535 688.731 123.583C747.746 142.533 806.761 166.63 865.776 190.728C933.604 218.423 1001.43 246.119 1069.26 266Z" fill="white" class="svg-overlay" opacity="0.5"/>
</g>
<g>
<path fill-rule="evenodd" clip-rule="evenodd" d="M936.173 266H0L0 119.874L66.9822 111.864C133.964 103.854 267.929 87.835 401.893 103.854C531.536 119.357 661.179 167.008 790.822 214.658C795.143 216.247 799.465 217.835 803.786 219.422C847.915 235.63 892.044 251.837 936.173 266Z" fill="#4DD6E6" class="svg-overlay" opacity="0.5"/>
</g>
<defs>
<linearGradient id="fourBottom1" x1="803.786" y1="0.500002" x2="803.786" y2="419.279" gradientUnits="userSpaceOnUse">
<stop stop-opacity="0"/>
<stop offset="1"/>
</linearGradient>
<linearGradient id="fourBottom2" x1="803.772" y1="82" x2="803.772" y2="453.41" gradientUnits="userSpaceOnUse">
<stop stop-color="white"/>
<stop offset="1" stop-color="white" stop-opacity="0"/>
</linearGradient>
<linearGradient id="fourBottom3" x1="639" y1="2.00001" x2="641" y2="369" gradientUnits="userSpaceOnUse">
<stop stop-opacity="0"/>
<stop offset="0.752303"/>
</linearGradient>
</defs>
</svg>
