<svg viewBox="0 0 1440 371" fill="none" xmlns="http://www.w3.org/2000/svg">
<path fill-rule="evenodd" clip-rule="evenodd" d="M0 22.4127L60 37.5283C120 52.6439 240 82.875 360 78.7052C480 75.0566 600 37.5283 720 48.9953C840 59.941 960 120.403 1080 120.403C1200 120.403 1320 59.941 1380 30.2311L1440 0V370.631H1380C1320 370.631 1200 370.631 1080 370.631C960 370.631 840 370.631 720 370.631C600 370.631 480 370.631 360 370.631C240 370.631 120 370.631 60 370.631H0L0 22.4127Z" fill="#11373B"/>
<g>
<path d="M1 22.6647V164.927L61.0208 171.956C121.042 178.985 241.083 193.043 361.125 178.985C477.294 165.381 593.464 123.565 709.633 81.7489C713.505 80.355 717.378 78.9612 721.25 77.5684C739.967 70.8361 758.684 64.1039 777.401 57.5619C758.267 53.7447 739.134 50.7406 720 48.9953C649.057 42.2161 578.113 52.5613 507.17 62.9064C458.113 70.06 409.057 77.2136 360 78.7052C240 82.875 120 52.6439 60 37.5283L1 22.6647Z" fill="url(#fourTop2)" class="svg-overlay" opacity="0.25"/>
</g>
<g>
<path d="M60 37.5283L0 22.4127V310.425L66.981 285.821C133.962 260.045 267.924 209.664 401.886 226.067C461.078 233.833 520.27 254.637 579.463 275.441C654.232 301.721 729.002 328 803.772 328C887.643 328 971.515 294.933 1055.39 261.866L1055.39 261.865C1105.48 242.117 1155.57 222.369 1205.66 209.664C1289.18 188.479 1372.71 187.335 1440 191.465V14H1412.21L1380 30.2311C1379 30.7266 1377.98 31.2305 1376.95 31.7427C1316 61.9407 1198 120.403 1080 120.403C1014.03 120.403 948.057 102.129 882.085 83.8551C828.057 68.8893 774.028 53.9235 720 48.9953C649.057 42.2161 578.113 52.5613 507.17 62.9064C458.113 70.06 409.057 77.2136 360 78.7052C240 82.875 120 52.6439 60 37.5283Z" fill="url(#fourTop3)" class="svg-overlay" opacity="0.5"/>
</g>
<g>
<path d="M1440 341.246L1374.02 349.136C1307.04 357.146 1173.07 373.165 1039.11 357.146C909.464 341.643 779.821 293.992 650.178 246.342C645.857 244.753 641.535 243.165 637.214 241.578C503.25 192.376 369.285 143.174 235.321 151.183C152.217 156.152 69.1135 183.578 2 211.608V22.9166L60 37.5283C120 52.6439 240 82.875 360 78.7052C409.057 77.2136 458.113 70.06 507.17 62.9064C578.113 52.5613 649.057 42.2161 720 48.9953C774.028 53.9235 828.057 68.8893 882.085 83.8551C948.057 102.129 1014.03 120.403 1080 120.403C1198 120.403 1316 61.9407 1376.95 31.7427C1377.98 31.2305 1379 30.7266 1380 30.2311L1440 0V341.246Z" fill="url(#fourTop4)" class="svg-overlay" opacity="0.2"/>
</g>
<g>
<path d="M705.578 47.8477C710.385 48.1552 715.193 48.5359 720 48.9953C774.028 53.9235 828.057 68.8893 882.085 83.8551C948.057 102.129 1014.03 120.403 1080 120.403C1198 120.403 1316 61.9407 1376.95 31.7427C1377.98 31.2305 1379 30.7266 1380 30.2311L1432.06 4H1436.33C1423.48 196.134 1263.56 348 1068.17 348C887.902 348 737.828 218.738 705.578 47.8477Z" fill="url(#fourTop5)" class="svg-overlay" opacity="0.4"/>
</g>
<defs>
<linearGradient id="fourTop2" x1="721.25" y1="185" x2="721.25" y2="47.9467" gradientUnits="userSpaceOnUse">
<stop stop-opacity="0"/>
<stop offset="1"/>
</linearGradient>
<linearGradient id="fourTop3" x1="803.771" y1="328" x2="803.771" y2="-43.4105" gradientUnits="userSpaceOnUse">
<stop stop-color="white"/>
<stop offset="1" stop-color="white" stop-opacity="0"/>
</linearGradient>
<linearGradient id="fourTop4" x1="637.214" y1="364" x2="637.214" y2="-54.7791" gradientUnits="userSpaceOnUse">
<stop stop-opacity="0"/>
<stop offset="1"/>
</linearGradient>
<linearGradient id="fourTop5" x1="1068.17" y1="348" x2="1068.17" y2="-390" gradientUnits="userSpaceOnUse">
<stop stop-color="white"/>
<stop offset="1" stop-opacity="0"/>
</linearGradient>
</defs>
</svg>
